<?xml version="1.0" encoding="UTF-8"?>
<svg id="Calque_1" data-name="Calque 1" xmlns="http://www.w3.org/2000/svg" viewBox="0 0 913.66 389.26">
  <defs>
    <style>
      .cls-1 {
        fill: #2c10d6;
      }

      .cls-1, .cls-2 {
        stroke-width: 0px;
      }

      .cls-2 {
        fill: #262626;
      }
    </style>
  </defs>
  <g>
    <path class="cls-2" d="m320.01,150.96c7.99,0,14.65,2.62,19.96,7.85,5.32,5.23,7.98,11.77,7.98,19.6s-2.67,14.3-8.01,19.53c-5.34,5.23-11.98,7.85-19.93,7.85h-24.36v32.51h-11.62v-87.34h35.98Zm-.31,43.95c4.7,0,8.6-1.57,11.71-4.7,3.11-3.13,4.67-7.07,4.67-11.81s-1.56-8.69-4.67-11.84c-3.11-3.15-7.01-4.73-11.71-4.73h-24.05v33.07h24.05Z"/>
    <path class="cls-2" d="m408.46,238.3l-8.47-21.14h-42.77l-8.47,21.14h-12.43l35.54-87.34h13.84l35.54,87.34h-12.8Zm-46.92-31.9h34.18l-17.12-42.9-17.06,42.9Z"/>
    <path class="cls-2" d="m489.58,150.96h11.56v87.34h-11.93l-49.39-67.99v67.99h-11.62v-87.34h11.99l49.39,68.24v-68.24Z"/>
    <path class="cls-2" d="m541.93,150.96c8.32,0,15.86,1.9,22.62,5.69,6.76,3.79,12.05,9.01,15.88,15.67,3.83,6.66,5.75,14.09,5.75,22.29s-1.92,15.64-5.75,22.31c-3.83,6.68-9.13,11.91-15.88,15.7-6.76,3.79-14.3,5.69-22.62,5.69h-33.69v-87.34h33.69Zm-.12,76.46c9.23,0,16.96-3.13,23.18-9.4,6.22-6.26,9.34-14.07,9.34-23.43,0-6.14-1.41-11.71-4.24-16.72-2.82-5.01-6.72-8.93-11.68-11.77-4.97-2.84-10.5-4.26-16.6-4.26h-21.94v65.58h21.94Z"/>
    <path class="cls-2" d="m638.97,239.84c-6.43,0-12.47-1.16-18.11-3.49-5.65-2.33-10.49-5.49-14.53-9.49-4.04-4-7.22-8.79-9.55-14.37-2.33-5.58-3.49-11.55-3.49-17.89,0-8.45,1.98-16.12,5.93-23.03,3.96-6.9,9.43-12.32,16.41-16.26,6.98-3.94,14.76-5.9,23.33-5.9s16.35,1.97,23.33,5.9c6.98,3.94,12.46,9.35,16.44,16.26,3.98,6.9,5.97,14.58,5.97,23.03s-1.99,16.13-5.97,23.06c-3.98,6.92-9.46,12.35-16.44,16.29-6.99,3.94-14.77,5.9-23.33,5.9Zm-17.22-15.64c5.17,2.97,10.91,4.45,17.22,4.45s12.04-1.48,17.21-4.45c5.17-2.97,9.23-7.06,12.18-12.27,2.95-5.21,4.42-10.99,4.42-17.34s-1.47-12.13-4.42-17.34c-2.95-5.21-7.01-9.29-12.18-12.24-5.17-2.95-10.91-4.42-17.21-4.42-4.74,0-9.2.86-13.38,2.6-4.18,1.73-7.76,4.1-10.72,7.11-2.97,3.01-5.32,6.61-7.05,10.82-1.73,4.2-2.6,8.69-2.6,13.48,0,6.35,1.46,12.13,4.39,17.34,2.93,5.21,6.98,9.3,12.15,12.27Z"/>
    <path class="cls-2" d="m742.31,238.3l-26.08-34.68h-12.8v34.68h-11.62v-87.34h35.42c7.75,0,14.23,2.53,19.44,7.6,5.21,5.07,7.82,11.39,7.82,18.98,0,7.05-2.34,13.01-7.02,17.89-4.68,4.88-10.58,7.57-17.71,8.07l26.58,34.8h-14.03Zm-38.88-76.46v31.65h23.55c4.45,0,8.16-1.5,11.13-4.51,2.97-3.01,4.45-6.78,4.45-11.31s-1.48-8.3-4.45-11.31c-2.97-3.01-6.68-4.51-11.13-4.51h-23.55Z"/>
    <path class="cls-2" d="m835.38,238.3l-8.47-21.14h-42.77l-8.47,21.14h-12.43l35.54-87.34h13.84l35.54,87.34h-12.8Zm-46.92-31.9h34.18l-17.12-42.9-17.06,42.9Z"/>
  </g>
  <path class="cls-1" d="m148.99,268.93c-10.35,0-18.54-1.93-24.44-5.76l-3.99-2.59v-36.96h-55.08v-70.06l4.95-2.39c38.21-18.49,74.29-29.08,104.33-30.64,15.04-.78,28.33.72,39.49,4.46,11.95,4,21.3,10.48,27.8,19.25,5.86,7.91,9.24,17.8,10.05,29.39.57,8.14-.32,15.07-.91,18.48-3.11,18.17-11.71,34.5-24.88,47.23-13.09,12.65-30.78,21.76-51.16,26.36-1.1.27-8.75,2.09-18.04,2.88-2.84.24-5.55.36-8.13.36Zm-10.89-18.77c4.23,1.18,10.26,1.53,17.31.96,8.46-.69,15.53-2.44,15.6-2.46l.21-.05c34.72-7.81,57.57-29.48,62.69-59.46.86-5.04,2.98-22.42-5.95-34.48-8.9-12.01-27.47-17.92-52.29-16.63-26.45,1.37-58.4,10.54-92.65,26.56v41.49h37.54v-48.38h83.16v65.92h-65.62v26.54Zm0-44.08h48.09v-30.84h-48.09v30.84Z"/>
</svg>